<svg width="1921" height="890" viewBox="0 0 15970 6324" fill="none" xmlns="http://www.w3.org/2000/svg">
<g clip-path="url(#clip0)">
<path d="M0 6324V0H9181L6263.27 6324H0Z" fill="#2A4655" stroke="black"/>
<path d="M4825.27 4876.28C3723.99 4881.52 2938.56 4191.62 2231.35 4191.62C1524.15 4191.62 0 4876.28 0 4876.28V6324H15970V4897.49C15970 4897.49 15235.5 4302.16 14602.5 4191.62C13629.7 4021.75 13264.4 4959.74 12262.7 4876.28C11475.9 4810.73 11348.1 4235.44 10557.4 4191.62C9590.38 4138.02 9334.48 5114.82 8398.7 4954.69C7794.8 4851.34 7812.95 4406.26 7219.82 4281.31C6265.88 4080.36 5832.95 4871.48 4825.27 4876.28Z" fill="white" stroke="black"/>
</g>
<defs>
<clipPath id="clip0">
<rect width="15970" height="6324" fill="white"/>
</clipPath>
</defs>
</svg>
