<svg width="12232" height="6987" viewBox="0 0 12232 6987" fill="none" xmlns="http://www.w3.org/2000/svg">
<path d="M1145.18 5080.97C490.962 3428.79 1383.35 1228.04 2203.54 1416.34C3023.73 1604.64 2380.21 4409.85 8632.54 1416.34C14884.9 -1577.17 10435.9 3838.18 9112.96 4832.48C6957.47 6452.49 2060.76 7393.22 1145.18 5080.97Z" fill="#6DA7C8"/>
<path d="M1145.18 5080.97C490.962 3428.79 1383.35 1228.04 2203.54 1416.34C3023.73 1604.64 2380.21 4409.85 8632.54 1416.34C14884.9 -1577.17 10435.9 3838.18 9112.96 4832.48C6957.47 6452.49 2060.76 7393.22 1145.18 5080.97Z" fill="url(#paint0_linear)"/>
<path d="M1183.6 5381.02C533.348 3619.32 1418.39 1271.95 2232.79 1472.44C3047.2 1672.92 2409.5 4664.79 8615.77 1469.82C14822 -1725.15 10407.3 4051.87 9094.25 5112.77C6954.89 6841.31 2093.64 7846.54 1183.6 5381.02Z" fill="#0F5E8A"/>
<path d="M1183.6 5381.02C533.348 3619.32 1418.39 1271.95 2232.79 1472.44C3047.2 1672.92 2409.5 4664.79 8615.77 1469.82C14822 -1725.15 10407.3 4051.87 9094.25 5112.77C6954.89 6841.31 2093.64 7846.54 1183.6 5381.02Z" fill="url(#paint1_linear)"/>
<defs>
<linearGradient id="paint0_linear" x1="6402" y1="524" x2="6402" y2="6464" gradientUnits="userSpaceOnUse">
<stop stop-color="#6FDDDD"/>
<stop offset="1" stop-color="white" stop-opacity="0"/>
</linearGradient>
<linearGradient id="paint1_linear" x1="6400.81" y1="519.097" x2="6403.4" y2="6853.81" gradientUnits="userSpaceOnUse">
<stop stop-color="#6BE8E8"/>
<stop offset="1" stop-color="white" stop-opacity="0"/>
</linearGradient>
</defs>
</svg>
