<svg width="35" height="35" viewBox="0 0 1233 1233" fill="none" xmlns="http://www.w3.org/2000/svg">
<g clip-path="url(#clip0)">
<rect width="1233" height="1233" rx="616.5" fill="white"/>
<path d="M786.542 803.243C639.44 989.164 447.959 899.83 347.828 604.706C247.697 309.582 521.158 277.477 727.162 393.82" stroke="#AE5252" stroke-width="800" stroke-linecap="round" stroke-linejoin="round"/>
<path d="M444.029 794.738C591.466 976.84 779.232 916.452 884.208 618.487C989.184 320.522 729.359 279.446 505.479 392.581" stroke="#AE5252" stroke-width="800" stroke-linecap="round" stroke-linejoin="round"/>
<path d="M773.168 828.577C610.139 1011.69 413.455 856.484 339.325 582.059C265.196 307.635 524.044 270.017 734.942 386.397" stroke="white" stroke-width="200" stroke-linecap="round" stroke-linejoin="round"/>
<path d="M447.817 807.674C585.343 990.369 787.865 919.763 887.434 615.694C987.002 311.626 709.481 270.952 495.315 385.931" stroke="white" stroke-width="200" stroke-linecap="round" stroke-linejoin="round"/>
<path d="M403.682 471.236V467.906C403.682 467.001 403.577 466.2 403.369 465.504C403.161 464.8 402.861 464.208 402.471 463.726C402.074 463.244 401.589 462.88 401.016 462.633C400.449 462.379 399.801 462.252 399.072 462.252C398.35 462.252 397.702 462.379 397.129 462.633C396.562 462.88 396.084 463.244 395.693 463.726C395.296 464.208 394.993 464.8 394.785 465.504C394.577 466.2 394.473 467.001 394.473 467.906V471.236C394.473 472.141 394.577 472.945 394.785 473.648C394.993 474.345 395.296 474.931 395.693 475.406C396.09 475.894 396.576 476.262 397.148 476.509C397.721 476.75 398.369 476.871 399.092 476.871C399.821 476.871 400.469 476.747 401.035 476.5C401.602 476.252 402.08 475.888 402.471 475.406C402.861 474.931 403.161 474.345 403.369 473.648C403.577 472.945 403.682 472.141 403.682 471.236ZM396.289 470.875C396.289 470.705 396.289 470.539 396.289 470.377C396.289 470.214 396.289 470.051 396.289 469.888V467.506C396.289 466.841 396.354 466.259 396.484 465.758C396.621 465.25 396.826 464.836 397.1 464.517C397.327 464.263 397.604 464.071 397.93 463.941C398.262 463.804 398.643 463.736 399.072 463.736C399.495 463.736 399.867 463.798 400.186 463.922C400.511 464.045 400.785 464.231 401.006 464.478C401.234 464.719 401.413 465.022 401.543 465.386C401.68 465.744 401.774 466.158 401.826 466.627L396.289 470.875ZM401.865 471.617C401.865 472.313 401.794 472.919 401.65 473.433C401.514 473.948 401.296 474.364 400.996 474.683C400.775 474.918 400.505 475.097 400.186 475.22C399.867 475.344 399.502 475.406 399.092 475.406C398.701 475.406 398.35 475.351 398.037 475.24C397.725 475.123 397.458 474.953 397.236 474.732C396.995 474.498 396.8 474.202 396.65 473.843C396.501 473.479 396.396 473.059 396.338 472.584L401.865 468.355C401.865 468.537 401.865 468.769 401.865 469.049C401.865 469.322 401.865 469.508 401.865 469.605V471.617ZM412.627 476.675V462.457H412.48L407.1 464.527V466.177L410.82 464.761V476.675H412.627Z" fill="white"/>
<path d="M429.627 436.974V433.644C429.627 432.739 429.523 431.938 429.314 431.242C429.106 430.539 428.807 429.946 428.416 429.465C428.019 428.983 427.534 428.618 426.961 428.371C426.395 428.117 425.747 427.99 425.018 427.99C424.295 427.99 423.647 428.117 423.074 428.371C422.508 428.618 422.029 428.983 421.639 429.465C421.242 429.946 420.939 430.539 420.73 431.242C420.522 431.938 420.418 432.739 420.418 433.644V436.974C420.418 437.879 420.522 438.683 420.73 439.386C420.939 440.083 421.242 440.669 421.639 441.144C422.036 441.633 422.521 442 423.094 442.248C423.667 442.489 424.314 442.609 425.037 442.609C425.766 442.609 426.414 442.485 426.98 442.238C427.547 441.991 428.025 441.626 428.416 441.144C428.807 440.669 429.106 440.083 429.314 439.386C429.523 438.683 429.627 437.879 429.627 436.974ZM422.234 436.613C422.234 436.444 422.234 436.278 422.234 436.115C422.234 435.952 422.234 435.789 422.234 435.627V433.244C422.234 432.58 422.299 431.997 422.43 431.496C422.566 430.988 422.771 430.575 423.045 430.256C423.273 430.002 423.549 429.81 423.875 429.679C424.207 429.543 424.588 429.474 425.018 429.474C425.441 429.474 425.812 429.536 426.131 429.66C426.456 429.784 426.73 429.969 426.951 430.216C427.179 430.457 427.358 430.76 427.488 431.125C427.625 431.483 427.719 431.896 427.771 432.365L422.234 436.613ZM427.811 437.355C427.811 438.052 427.739 438.657 427.596 439.172C427.459 439.686 427.241 440.103 426.941 440.422C426.72 440.656 426.45 440.835 426.131 440.959C425.812 441.082 425.447 441.144 425.037 441.144C424.646 441.144 424.295 441.089 423.982 440.978C423.67 440.861 423.403 440.692 423.182 440.47C422.941 440.236 422.745 439.94 422.596 439.582C422.446 439.217 422.342 438.797 422.283 438.322L427.811 434.093C427.811 434.276 427.811 434.507 427.811 434.787C427.811 435.06 427.811 435.246 427.811 435.343V437.355ZM438.572 442.414V428.195H438.426L433.045 430.265V431.916L436.766 430.5V442.414H438.572Z" fill="white"/>
<path d="M551.111 458.24V454.91C551.111 454.005 551.007 453.204 550.799 452.508C550.59 451.805 550.291 451.212 549.9 450.73C549.503 450.249 549.018 449.884 548.445 449.637C547.879 449.383 547.231 449.256 546.502 449.256C545.779 449.256 545.132 449.383 544.559 449.637C543.992 449.884 543.514 450.249 543.123 450.73C542.726 451.212 542.423 451.805 542.215 452.508C542.007 453.204 541.902 454.005 541.902 454.91V458.24C541.902 459.145 542.007 459.949 542.215 460.652C542.423 461.349 542.726 461.935 543.123 462.41C543.52 462.898 544.005 463.266 544.578 463.513C545.151 463.754 545.799 463.875 546.521 463.875C547.251 463.875 547.898 463.751 548.465 463.504C549.031 463.256 549.51 462.892 549.9 462.41C550.291 461.935 550.59 461.349 550.799 460.652C551.007 459.949 551.111 459.145 551.111 458.24ZM543.719 457.879C543.719 457.709 543.719 457.543 543.719 457.381C543.719 457.218 543.719 457.055 543.719 456.892V454.51C543.719 453.846 543.784 453.263 543.914 452.762C544.051 452.254 544.256 451.84 544.529 451.521C544.757 451.267 545.034 451.075 545.359 450.945C545.691 450.808 546.072 450.74 546.502 450.74C546.925 450.74 547.296 450.802 547.615 450.926C547.941 451.049 548.214 451.235 548.436 451.482C548.663 451.723 548.842 452.026 548.973 452.39C549.109 452.749 549.204 453.162 549.256 453.631L543.719 457.879ZM549.295 458.621C549.295 459.318 549.223 459.923 549.08 460.437C548.943 460.952 548.725 461.368 548.426 461.687C548.204 461.922 547.934 462.101 547.615 462.224C547.296 462.348 546.932 462.41 546.521 462.41C546.131 462.41 545.779 462.355 545.467 462.244C545.154 462.127 544.887 461.957 544.666 461.736C544.425 461.502 544.23 461.206 544.08 460.847C543.93 460.483 543.826 460.063 543.768 459.588L549.295 455.359C549.295 455.541 549.295 455.773 549.295 456.053C549.295 456.326 549.295 456.512 549.295 456.609V458.621ZM560.057 463.68V449.461H559.91L554.529 451.531V453.181L558.25 451.765V463.68H560.057Z" fill="white"/>
<path d="M816.648 618.764C781.816 722.373 734.072 828.151 621.176 829.161C506.648 830.185 458.419 704.944 414.843 599.047C403.727 572.033 383.638 494.058 419.576 450.065C435.971 429.996 453.1 422.012 474.933 415.691L475.506 415.573C487.085 413.201 491.3 412.338 502.463 410.849C504.398 410.59 493.332 419.039 495.291 434.609C497.684 453.624 511.72 460.538 523.115 461.401C533.379 462.178 544.704 451.838 574.824 440.929C595.359 431.794 621.372 425.347 621.372 425.347C621.372 425.347 651.266 434.027 674.804 446.329C695.854 457.329 715.907 468.886 730.308 454.76C745.422 439.934 734.582 414.561 735.116 414.573C735.116 414.573 733.122 403.163 760.436 409.834C787.749 416.505 795.579 415.797 831.599 472.826C847.52 503.623 829.988 579.084 816.648 618.764Z" fill="#5B0A0A" stroke="#2AE3E3" stroke-opacity="0.92" stroke-width="41"/>
<path d="M631.613 580.561V577.23C631.613 576.326 631.509 575.525 631.301 574.828C631.092 574.125 630.793 573.533 630.402 573.051C630.005 572.569 629.52 572.204 628.947 571.957C628.381 571.703 627.733 571.576 627.004 571.576C626.281 571.576 625.633 571.703 625.061 571.957C624.494 572.204 624.016 572.569 623.625 573.051C623.228 573.533 622.925 574.125 622.717 574.828C622.508 575.525 622.404 576.326 622.404 577.23V580.561C622.404 581.465 622.508 582.27 622.717 582.973C622.925 583.669 623.228 584.255 623.625 584.73C624.022 585.219 624.507 585.587 625.08 585.834C625.653 586.075 626.301 586.195 627.023 586.195C627.753 586.195 628.4 586.072 628.967 585.824C629.533 585.577 630.012 585.212 630.402 584.73C630.793 584.255 631.092 583.669 631.301 582.973C631.509 582.27 631.613 581.465 631.613 580.561ZM624.221 580.199C624.221 580.03 624.221 579.864 624.221 579.701C624.221 579.538 624.221 579.376 624.221 579.213V576.83C624.221 576.166 624.286 575.583 624.416 575.082C624.553 574.574 624.758 574.161 625.031 573.842C625.259 573.588 625.536 573.396 625.861 573.266C626.193 573.129 626.574 573.061 627.004 573.061C627.427 573.061 627.798 573.122 628.117 573.246C628.443 573.37 628.716 573.555 628.938 573.803C629.165 574.044 629.344 574.346 629.475 574.711C629.611 575.069 629.706 575.482 629.758 575.951L624.221 580.199ZM629.797 580.941C629.797 581.638 629.725 582.243 629.582 582.758C629.445 583.272 629.227 583.689 628.928 584.008C628.706 584.242 628.436 584.421 628.117 584.545C627.798 584.669 627.434 584.73 627.023 584.73C626.633 584.73 626.281 584.675 625.969 584.564C625.656 584.447 625.389 584.278 625.168 584.057C624.927 583.822 624.732 583.526 624.582 583.168C624.432 582.803 624.328 582.383 624.27 581.908L629.797 577.68C629.797 577.862 629.797 578.093 629.797 578.373C629.797 578.646 629.797 578.832 629.797 578.93V580.941ZM640.559 586V571.781H640.412L635.031 573.852V575.502L638.752 574.086V586H640.559Z" fill="white"/>
<path d="M626.484 560.561V557.23C626.484 556.326 626.38 555.525 626.172 554.828C625.964 554.125 625.664 553.533 625.273 553.051C624.876 552.569 624.391 552.204 623.818 551.957C623.252 551.703 622.604 551.576 621.875 551.576C621.152 551.576 620.505 551.703 619.932 551.957C619.365 552.204 618.887 552.569 618.496 553.051C618.099 553.533 617.796 554.125 617.588 554.828C617.38 555.525 617.275 556.326 617.275 557.23V560.561C617.275 561.465 617.38 562.27 617.588 562.973C617.796 563.669 618.099 564.255 618.496 564.73C618.893 565.219 619.378 565.587 619.951 565.834C620.524 566.075 621.172 566.195 621.895 566.195C622.624 566.195 623.271 566.072 623.838 565.824C624.404 565.577 624.883 565.212 625.273 564.73C625.664 564.255 625.964 563.669 626.172 562.973C626.38 562.27 626.484 561.465 626.484 560.561ZM619.092 560.199C619.092 560.03 619.092 559.864 619.092 559.701C619.092 559.538 619.092 559.376 619.092 559.213V556.83C619.092 556.166 619.157 555.583 619.287 555.082C619.424 554.574 619.629 554.161 619.902 553.842C620.13 553.588 620.407 553.396 620.732 553.266C621.064 553.129 621.445 553.061 621.875 553.061C622.298 553.061 622.669 553.122 622.988 553.246C623.314 553.37 623.587 553.555 623.809 553.803C624.036 554.044 624.215 554.346 624.346 554.711C624.482 555.069 624.577 555.482 624.629 555.951L619.092 560.199ZM624.668 560.941C624.668 561.638 624.596 562.243 624.453 562.758C624.316 563.272 624.098 563.689 623.799 564.008C623.577 564.242 623.307 564.421 622.988 564.545C622.669 564.669 622.305 564.73 621.895 564.73C621.504 564.73 621.152 564.675 620.84 564.564C620.527 564.447 620.26 564.278 620.039 564.057C619.798 563.822 619.603 563.526 619.453 563.168C619.303 562.803 619.199 562.383 619.141 561.908L624.668 557.68C624.668 557.862 624.668 558.093 624.668 558.373C624.668 558.646 624.668 558.832 624.668 558.93V560.941ZM635.43 566V551.781H635.283L629.902 553.852V555.502L633.623 554.086V566H635.43Z" fill="white"/>
<path d="M588.01 554.561V551.23C588.01 550.326 587.906 549.525 587.697 548.828C587.489 548.125 587.189 547.533 586.799 547.051C586.402 546.569 585.917 546.204 585.344 545.957C584.777 545.703 584.13 545.576 583.4 545.576C582.678 545.576 582.03 545.703 581.457 545.957C580.891 546.204 580.412 546.569 580.021 547.051C579.624 547.533 579.322 548.125 579.113 548.828C578.905 549.525 578.801 550.326 578.801 551.23V554.561C578.801 555.465 578.905 556.27 579.113 556.973C579.322 557.669 579.624 558.255 580.021 558.73C580.419 559.219 580.904 559.587 581.477 559.834C582.049 560.075 582.697 560.195 583.42 560.195C584.149 560.195 584.797 560.072 585.363 559.824C585.93 559.577 586.408 559.212 586.799 558.73C587.189 558.255 587.489 557.669 587.697 556.973C587.906 556.27 588.01 555.465 588.01 554.561ZM580.617 554.199C580.617 554.03 580.617 553.864 580.617 553.701C580.617 553.538 580.617 553.376 580.617 553.213V550.83C580.617 550.166 580.682 549.583 580.812 549.082C580.949 548.574 581.154 548.161 581.428 547.842C581.656 547.588 581.932 547.396 582.258 547.266C582.59 547.129 582.971 547.061 583.4 547.061C583.824 547.061 584.195 547.122 584.514 547.246C584.839 547.37 585.113 547.555 585.334 547.803C585.562 548.044 585.741 548.346 585.871 548.711C586.008 549.069 586.102 549.482 586.154 549.951L580.617 554.199ZM586.193 554.941C586.193 555.638 586.122 556.243 585.979 556.758C585.842 557.272 585.624 557.689 585.324 558.008C585.103 558.242 584.833 558.421 584.514 558.545C584.195 558.669 583.83 558.73 583.42 558.73C583.029 558.73 582.678 558.675 582.365 558.564C582.053 558.447 581.786 558.278 581.564 558.057C581.324 557.822 581.128 557.526 580.979 557.168C580.829 556.803 580.725 556.383 580.666 555.908L586.193 551.68C586.193 551.862 586.193 552.093 586.193 552.373C586.193 552.646 586.193 552.832 586.193 552.93V554.941ZM596.955 560V545.781H596.809L591.428 547.852V549.502L595.148 548.086V560H596.955Z" fill="white"/>
<path d="M707.281 569.561V566.23C707.281 565.326 707.177 564.525 706.969 563.828C706.76 563.125 706.461 562.533 706.07 562.051C705.673 561.569 705.188 561.204 704.615 560.957C704.049 560.703 703.401 560.576 702.672 560.576C701.949 560.576 701.301 560.703 700.729 560.957C700.162 561.204 699.684 561.569 699.293 562.051C698.896 562.533 698.593 563.125 698.385 563.828C698.176 564.525 698.072 565.326 698.072 566.23V569.561C698.072 570.465 698.176 571.27 698.385 571.973C698.593 572.669 698.896 573.255 699.293 573.73C699.69 574.219 700.175 574.587 700.748 574.834C701.321 575.075 701.969 575.195 702.691 575.195C703.421 575.195 704.068 575.072 704.635 574.824C705.201 574.577 705.68 574.212 706.07 573.73C706.461 573.255 706.76 572.669 706.969 571.973C707.177 571.27 707.281 570.465 707.281 569.561ZM699.889 569.199C699.889 569.03 699.889 568.864 699.889 568.701C699.889 568.538 699.889 568.376 699.889 568.213V565.83C699.889 565.166 699.954 564.583 700.084 564.082C700.221 563.574 700.426 563.161 700.699 562.842C700.927 562.588 701.204 562.396 701.529 562.266C701.861 562.129 702.242 562.061 702.672 562.061C703.095 562.061 703.466 562.122 703.785 562.246C704.111 562.37 704.384 562.555 704.605 562.803C704.833 563.044 705.012 563.346 705.143 563.711C705.279 564.069 705.374 564.482 705.426 564.951L699.889 569.199ZM705.465 569.941C705.465 570.638 705.393 571.243 705.25 571.758C705.113 572.272 704.895 572.689 704.596 573.008C704.374 573.242 704.104 573.421 703.785 573.545C703.466 573.669 703.102 573.73 702.691 573.73C702.301 573.73 701.949 573.675 701.637 573.564C701.324 573.447 701.057 573.278 700.836 573.057C700.595 572.822 700.4 572.526 700.25 572.168C700.1 571.803 699.996 571.383 699.938 570.908L705.465 566.68C705.465 566.862 705.465 567.093 705.465 567.373C705.465 567.646 705.465 567.832 705.465 567.93V569.941ZM716.227 575V560.781H716.08L710.699 562.852V564.502L714.42 563.086V575H716.227Z" fill="white"/>
<path d="M708.562 545.561V542.23C708.562 541.326 708.458 540.525 708.25 539.828C708.042 539.125 707.742 538.533 707.352 538.051C706.954 537.569 706.469 537.204 705.896 536.957C705.33 536.703 704.682 536.576 703.953 536.576C703.23 536.576 702.583 536.703 702.01 536.957C701.443 537.204 700.965 537.569 700.574 538.051C700.177 538.533 699.874 539.125 699.666 539.828C699.458 540.525 699.354 541.326 699.354 542.23V545.561C699.354 546.465 699.458 547.27 699.666 547.973C699.874 548.669 700.177 549.255 700.574 549.73C700.971 550.219 701.456 550.587 702.029 550.834C702.602 551.075 703.25 551.195 703.973 551.195C704.702 551.195 705.35 551.072 705.916 550.824C706.482 550.577 706.961 550.212 707.352 549.73C707.742 549.255 708.042 548.669 708.25 547.973C708.458 547.27 708.562 546.465 708.562 545.561ZM701.17 545.199C701.17 545.03 701.17 544.864 701.17 544.701C701.17 544.538 701.17 544.376 701.17 544.213V541.83C701.17 541.166 701.235 540.583 701.365 540.082C701.502 539.574 701.707 539.161 701.98 538.842C702.208 538.588 702.485 538.396 702.811 538.266C703.143 538.129 703.523 538.061 703.953 538.061C704.376 538.061 704.747 538.122 705.066 538.246C705.392 538.37 705.665 538.555 705.887 538.803C706.115 539.044 706.294 539.346 706.424 539.711C706.561 540.069 706.655 540.482 706.707 540.951L701.17 545.199ZM706.746 545.941C706.746 546.638 706.674 547.243 706.531 547.758C706.395 548.272 706.176 548.689 705.877 549.008C705.656 549.242 705.385 549.421 705.066 549.545C704.747 549.669 704.383 549.73 703.973 549.73C703.582 549.73 703.23 549.675 702.918 549.564C702.605 549.447 702.339 549.278 702.117 549.057C701.876 548.822 701.681 548.526 701.531 548.168C701.382 547.803 701.277 547.383 701.219 546.908L706.746 542.68C706.746 542.862 706.746 543.093 706.746 543.373C706.746 543.646 706.746 543.832 706.746 543.93V545.941ZM717.508 551V536.781H717.361L711.98 538.852V540.502L715.701 539.086V551H717.508Z" fill="white"/>
<path d="M691.891 598.561V595.23C691.891 594.326 691.786 593.525 691.578 592.828C691.37 592.125 691.07 591.533 690.68 591.051C690.283 590.569 689.798 590.204 689.225 589.957C688.658 589.703 688.01 589.576 687.281 589.576C686.559 589.576 685.911 589.703 685.338 589.957C684.771 590.204 684.293 590.569 683.902 591.051C683.505 591.533 683.202 592.125 682.994 592.828C682.786 593.525 682.682 594.326 682.682 595.23V598.561C682.682 599.465 682.786 600.27 682.994 600.973C683.202 601.669 683.505 602.255 683.902 602.73C684.299 603.219 684.785 603.587 685.357 603.834C685.93 604.075 686.578 604.195 687.301 604.195C688.03 604.195 688.678 604.072 689.244 603.824C689.811 603.577 690.289 603.212 690.68 602.73C691.07 602.255 691.37 601.669 691.578 600.973C691.786 600.27 691.891 599.465 691.891 598.561ZM684.498 598.199C684.498 598.03 684.498 597.864 684.498 597.701C684.498 597.538 684.498 597.376 684.498 597.213V594.83C684.498 594.166 684.563 593.583 684.693 593.082C684.83 592.574 685.035 592.161 685.309 591.842C685.536 591.588 685.813 591.396 686.139 591.266C686.471 591.129 686.852 591.061 687.281 591.061C687.704 591.061 688.076 591.122 688.395 591.246C688.72 591.37 688.993 591.555 689.215 591.803C689.443 592.044 689.622 592.346 689.752 592.711C689.889 593.069 689.983 593.482 690.035 593.951L684.498 598.199ZM690.074 598.941C690.074 599.638 690.003 600.243 689.859 600.758C689.723 601.272 689.505 601.689 689.205 602.008C688.984 602.242 688.714 602.421 688.395 602.545C688.076 602.669 687.711 602.73 687.301 602.73C686.91 602.73 686.559 602.675 686.246 602.564C685.934 602.447 685.667 602.278 685.445 602.057C685.204 601.822 685.009 601.526 684.859 601.168C684.71 600.803 684.605 600.383 684.547 599.908L690.074 595.68C690.074 595.862 690.074 596.093 690.074 596.373C690.074 596.646 690.074 596.832 690.074 596.93V598.941ZM700.836 604V589.781H700.689L695.309 591.852V593.502L699.029 592.086V604H700.836Z" fill="white"/>
<path d="M693.174 621.561V618.23C693.174 617.326 693.07 616.525 692.861 615.828C692.653 615.125 692.354 614.533 691.963 614.051C691.566 613.569 691.081 613.204 690.508 612.957C689.941 612.703 689.294 612.576 688.564 612.576C687.842 612.576 687.194 612.703 686.621 612.957C686.055 613.204 685.576 613.569 685.186 614.051C684.788 614.533 684.486 615.125 684.277 615.828C684.069 616.525 683.965 617.326 683.965 618.23V621.561C683.965 622.465 684.069 623.27 684.277 623.973C684.486 624.669 684.788 625.255 685.186 625.73C685.583 626.219 686.068 626.587 686.641 626.834C687.214 627.075 687.861 627.195 688.584 627.195C689.313 627.195 689.961 627.072 690.527 626.824C691.094 626.577 691.572 626.212 691.963 625.73C692.354 625.255 692.653 624.669 692.861 623.973C693.07 623.27 693.174 622.465 693.174 621.561ZM685.781 621.199C685.781 621.03 685.781 620.864 685.781 620.701C685.781 620.538 685.781 620.376 685.781 620.213V617.83C685.781 617.166 685.846 616.583 685.977 616.082C686.113 615.574 686.318 615.161 686.592 614.842C686.82 614.588 687.096 614.396 687.422 614.266C687.754 614.129 688.135 614.061 688.564 614.061C688.988 614.061 689.359 614.122 689.678 614.246C690.003 614.37 690.277 614.555 690.498 614.803C690.726 615.044 690.905 615.346 691.035 615.711C691.172 616.069 691.266 616.482 691.318 616.951L685.781 621.199ZM691.357 621.941C691.357 622.638 691.286 623.243 691.143 623.758C691.006 624.272 690.788 624.689 690.488 625.008C690.267 625.242 689.997 625.421 689.678 625.545C689.359 625.669 688.994 625.73 688.584 625.73C688.193 625.73 687.842 625.675 687.529 625.564C687.217 625.447 686.95 625.278 686.729 625.057C686.488 624.822 686.292 624.526 686.143 624.168C685.993 623.803 685.889 623.383 685.83 622.908L691.357 618.68C691.357 618.862 691.357 619.093 691.357 619.373C691.357 619.646 691.357 619.832 691.357 619.93V621.941ZM702.119 627V612.781H701.973L696.592 614.852V616.502L700.312 615.086V627H702.119Z" fill="white"/>
<path d="M638.025 627.561V624.23C638.025 623.326 637.921 622.525 637.713 621.828C637.505 621.125 637.205 620.533 636.814 620.051C636.417 619.569 635.932 619.204 635.359 618.957C634.793 618.703 634.145 618.576 633.416 618.576C632.693 618.576 632.046 618.703 631.473 618.957C630.906 619.204 630.428 619.569 630.037 620.051C629.64 620.533 629.337 621.125 629.129 621.828C628.921 622.525 628.816 623.326 628.816 624.23V627.561C628.816 628.465 628.921 629.27 629.129 629.973C629.337 630.669 629.64 631.255 630.037 631.73C630.434 632.219 630.919 632.587 631.492 632.834C632.065 633.075 632.713 633.195 633.436 633.195C634.165 633.195 634.812 633.072 635.379 632.824C635.945 632.577 636.424 632.212 636.814 631.73C637.205 631.255 637.505 630.669 637.713 629.973C637.921 629.27 638.025 628.465 638.025 627.561ZM630.633 627.199C630.633 627.03 630.633 626.864 630.633 626.701C630.633 626.538 630.633 626.376 630.633 626.213V623.83C630.633 623.166 630.698 622.583 630.828 622.082C630.965 621.574 631.17 621.161 631.443 620.842C631.671 620.588 631.948 620.396 632.273 620.266C632.605 620.129 632.986 620.061 633.416 620.061C633.839 620.061 634.21 620.122 634.529 620.246C634.855 620.37 635.128 620.555 635.35 620.803C635.577 621.044 635.757 621.346 635.887 621.711C636.023 622.069 636.118 622.482 636.17 622.951L630.633 627.199ZM636.209 627.941C636.209 628.638 636.137 629.243 635.994 629.758C635.857 630.272 635.639 630.689 635.34 631.008C635.118 631.242 634.848 631.421 634.529 631.545C634.21 631.669 633.846 631.73 633.436 631.73C633.045 631.73 632.693 631.675 632.381 631.564C632.068 631.447 631.801 631.278 631.58 631.057C631.339 630.822 631.144 630.526 630.994 630.168C630.844 629.803 630.74 629.383 630.682 628.908L636.209 624.68C636.209 624.862 636.209 625.093 636.209 625.373C636.209 625.646 636.209 625.832 636.209 625.93V627.941ZM646.971 633V618.781H646.824L641.443 620.852V622.502L645.164 621.086V633H646.971Z" fill="white"/>
<path d="M555.947 595.561V592.23C555.947 591.326 555.843 590.525 555.635 589.828C555.426 589.125 555.127 588.533 554.736 588.051C554.339 587.569 553.854 587.204 553.281 586.957C552.715 586.703 552.067 586.576 551.338 586.576C550.615 586.576 549.967 586.703 549.395 586.957C548.828 587.204 548.35 587.569 547.959 588.051C547.562 588.533 547.259 589.125 547.051 589.828C546.842 590.525 546.738 591.326 546.738 592.23V595.561C546.738 596.465 546.842 597.27 547.051 597.973C547.259 598.669 547.562 599.255 547.959 599.73C548.356 600.219 548.841 600.587 549.414 600.834C549.987 601.075 550.635 601.195 551.357 601.195C552.087 601.195 552.734 601.072 553.301 600.824C553.867 600.577 554.346 600.212 554.736 599.73C555.127 599.255 555.426 598.669 555.635 597.973C555.843 597.27 555.947 596.465 555.947 595.561ZM548.555 595.199C548.555 595.03 548.555 594.864 548.555 594.701C548.555 594.538 548.555 594.376 548.555 594.213V591.83C548.555 591.166 548.62 590.583 548.75 590.082C548.887 589.574 549.092 589.161 549.365 588.842C549.593 588.588 549.87 588.396 550.195 588.266C550.527 588.129 550.908 588.061 551.338 588.061C551.761 588.061 552.132 588.122 552.451 588.246C552.777 588.37 553.05 588.555 553.271 588.803C553.499 589.044 553.678 589.346 553.809 589.711C553.945 590.069 554.04 590.482 554.092 590.951L548.555 595.199ZM554.131 595.941C554.131 596.638 554.059 597.243 553.916 597.758C553.779 598.272 553.561 598.689 553.262 599.008C553.04 599.242 552.77 599.421 552.451 599.545C552.132 599.669 551.768 599.73 551.357 599.73C550.967 599.73 550.615 599.675 550.303 599.564C549.99 599.447 549.723 599.278 549.502 599.057C549.261 598.822 549.066 598.526 548.916 598.168C548.766 597.803 548.662 597.383 548.604 596.908L554.131 592.68C554.131 592.862 554.131 593.093 554.131 593.373C554.131 593.646 554.131 593.832 554.131 593.93V595.941ZM564.893 601V586.781H564.746L559.365 588.852V590.502L563.086 589.086V601H564.893Z" fill="white"/>
<path d="M513.625 587.561V584.23C513.625 583.326 513.521 582.525 513.312 581.828C513.104 581.125 512.805 580.533 512.414 580.051C512.017 579.569 511.532 579.204 510.959 578.957C510.393 578.703 509.745 578.576 509.016 578.576C508.293 578.576 507.645 578.703 507.072 578.957C506.506 579.204 506.027 579.569 505.637 580.051C505.24 580.533 504.937 581.125 504.729 581.828C504.52 582.525 504.416 583.326 504.416 584.23V587.561C504.416 588.465 504.52 589.27 504.729 589.973C504.937 590.669 505.24 591.255 505.637 591.73C506.034 592.219 506.519 592.587 507.092 592.834C507.665 593.075 508.312 593.195 509.035 593.195C509.764 593.195 510.412 593.072 510.979 592.824C511.545 592.577 512.023 592.212 512.414 591.73C512.805 591.255 513.104 590.669 513.312 589.973C513.521 589.27 513.625 588.465 513.625 587.561ZM506.232 587.199C506.232 587.03 506.232 586.864 506.232 586.701C506.232 586.538 506.232 586.376 506.232 586.213V583.83C506.232 583.166 506.298 582.583 506.428 582.082C506.564 581.574 506.77 581.161 507.043 580.842C507.271 580.588 507.548 580.396 507.873 580.266C508.205 580.129 508.586 580.061 509.016 580.061C509.439 580.061 509.81 580.122 510.129 580.246C510.454 580.37 510.728 580.555 510.949 580.803C511.177 581.044 511.356 581.346 511.486 581.711C511.623 582.069 511.717 582.482 511.77 582.951L506.232 587.199ZM511.809 587.941C511.809 588.638 511.737 589.243 511.594 589.758C511.457 590.272 511.239 590.689 510.939 591.008C510.718 591.242 510.448 591.421 510.129 591.545C509.81 591.669 509.445 591.73 509.035 591.73C508.645 591.73 508.293 591.675 507.98 591.564C507.668 591.447 507.401 591.278 507.18 591.057C506.939 590.822 506.743 590.526 506.594 590.168C506.444 589.803 506.34 589.383 506.281 588.908L511.809 584.68C511.809 584.862 511.809 585.093 511.809 585.373C511.809 585.646 511.809 585.832 511.809 585.93V587.941ZM522.57 593V578.781H522.424L517.043 580.852V582.502L520.764 581.086V593H522.57Z" fill="white"/>
<path d="M604.682 602.561V599.23C604.682 598.326 604.577 597.525 604.369 596.828C604.161 596.125 603.861 595.533 603.471 595.051C603.074 594.569 602.589 594.204 602.016 593.957C601.449 593.703 600.801 593.576 600.072 593.576C599.35 593.576 598.702 593.703 598.129 593.957C597.562 594.204 597.084 594.569 596.693 595.051C596.296 595.533 595.993 596.125 595.785 596.828C595.577 597.525 595.473 598.326 595.473 599.23V602.561C595.473 603.465 595.577 604.27 595.785 604.973C595.993 605.669 596.296 606.255 596.693 606.73C597.09 607.219 597.576 607.587 598.148 607.834C598.721 608.075 599.369 608.195 600.092 608.195C600.821 608.195 601.469 608.072 602.035 607.824C602.602 607.577 603.08 607.212 603.471 606.73C603.861 606.255 604.161 605.669 604.369 604.973C604.577 604.27 604.682 603.465 604.682 602.561ZM597.289 602.199C597.289 602.03 597.289 601.864 597.289 601.701C597.289 601.538 597.289 601.376 597.289 601.213V598.83C597.289 598.166 597.354 597.583 597.484 597.082C597.621 596.574 597.826 596.161 598.1 595.842C598.327 595.588 598.604 595.396 598.93 595.266C599.262 595.129 599.643 595.061 600.072 595.061C600.495 595.061 600.867 595.122 601.186 595.246C601.511 595.37 601.785 595.555 602.006 595.803C602.234 596.044 602.413 596.346 602.543 596.711C602.68 597.069 602.774 597.482 602.826 597.951L597.289 602.199ZM602.865 602.941C602.865 603.638 602.794 604.243 602.65 604.758C602.514 605.272 602.296 605.689 601.996 606.008C601.775 606.242 601.505 606.421 601.186 606.545C600.867 606.669 600.502 606.73 600.092 606.73C599.701 606.73 599.35 606.675 599.037 606.564C598.725 606.447 598.458 606.278 598.236 606.057C597.995 605.822 597.8 605.526 597.65 605.168C597.501 604.803 597.396 604.383 597.338 603.908L602.865 599.68C602.865 599.862 602.865 600.093 602.865 600.373C602.865 600.646 602.865 600.832 602.865 600.93V602.941ZM613.627 608V593.781H613.48L608.1 595.852V597.502L611.82 596.086V608H613.627Z" fill="white"/>
<path d="M552.1 624.561V621.23C552.1 620.326 551.995 619.525 551.787 618.828C551.579 618.125 551.279 617.533 550.889 617.051C550.492 616.569 550.007 616.204 549.434 615.957C548.867 615.703 548.219 615.576 547.49 615.576C546.768 615.576 546.12 615.703 545.547 615.957C544.98 616.204 544.502 616.569 544.111 617.051C543.714 617.533 543.411 618.125 543.203 618.828C542.995 619.525 542.891 620.326 542.891 621.23V624.561C542.891 625.465 542.995 626.27 543.203 626.973C543.411 627.669 543.714 628.255 544.111 628.73C544.508 629.219 544.993 629.587 545.566 629.834C546.139 630.075 546.787 630.195 547.51 630.195C548.239 630.195 548.887 630.072 549.453 629.824C550.02 629.577 550.498 629.212 550.889 628.73C551.279 628.255 551.579 627.669 551.787 626.973C551.995 626.27 552.1 625.465 552.1 624.561ZM544.707 624.199C544.707 624.03 544.707 623.864 544.707 623.701C544.707 623.538 544.707 623.376 544.707 623.213V620.83C544.707 620.166 544.772 619.583 544.902 619.082C545.039 618.574 545.244 618.161 545.518 617.842C545.745 617.588 546.022 617.396 546.348 617.266C546.68 617.129 547.061 617.061 547.49 617.061C547.913 617.061 548.285 617.122 548.604 617.246C548.929 617.37 549.202 617.555 549.424 617.803C549.652 618.044 549.831 618.346 549.961 618.711C550.098 619.069 550.192 619.482 550.244 619.951L544.707 624.199ZM550.283 624.941C550.283 625.638 550.212 626.243 550.068 626.758C549.932 627.272 549.714 627.689 549.414 628.008C549.193 628.242 548.923 628.421 548.604 628.545C548.285 628.669 547.92 628.73 547.51 628.73C547.119 628.73 546.768 628.675 546.455 628.564C546.143 628.447 545.876 628.278 545.654 628.057C545.413 627.822 545.218 627.526 545.068 627.168C544.919 626.803 544.814 626.383 544.756 625.908L550.283 621.68C550.283 621.862 550.283 622.093 550.283 622.373C550.283 622.646 550.283 622.832 550.283 622.93V624.941ZM561.045 630V615.781H560.898L555.518 617.852V619.502L559.238 618.086V630H561.045Z" fill="white"/>
<path d="M513.625 615.561V612.23C513.625 611.326 513.521 610.525 513.312 609.828C513.104 609.125 512.805 608.533 512.414 608.051C512.017 607.569 511.532 607.204 510.959 606.957C510.393 606.703 509.745 606.576 509.016 606.576C508.293 606.576 507.645 606.703 507.072 606.957C506.506 607.204 506.027 607.569 505.637 608.051C505.24 608.533 504.937 609.125 504.729 609.828C504.52 610.525 504.416 611.326 504.416 612.23V615.561C504.416 616.465 504.52 617.27 504.729 617.973C504.937 618.669 505.24 619.255 505.637 619.73C506.034 620.219 506.519 620.587 507.092 620.834C507.665 621.075 508.312 621.195 509.035 621.195C509.764 621.195 510.412 621.072 510.979 620.824C511.545 620.577 512.023 620.212 512.414 619.73C512.805 619.255 513.104 618.669 513.312 617.973C513.521 617.27 513.625 616.465 513.625 615.561ZM506.232 615.199C506.232 615.03 506.232 614.864 506.232 614.701C506.232 614.538 506.232 614.376 506.232 614.213V611.83C506.232 611.166 506.298 610.583 506.428 610.082C506.564 609.574 506.77 609.161 507.043 608.842C507.271 608.588 507.548 608.396 507.873 608.266C508.205 608.129 508.586 608.061 509.016 608.061C509.439 608.061 509.81 608.122 510.129 608.246C510.454 608.37 510.728 608.555 510.949 608.803C511.177 609.044 511.356 609.346 511.486 609.711C511.623 610.069 511.717 610.482 511.77 610.951L506.232 615.199ZM511.809 615.941C511.809 616.638 511.737 617.243 511.594 617.758C511.457 618.272 511.239 618.689 510.939 619.008C510.718 619.242 510.448 619.421 510.129 619.545C509.81 619.669 509.445 619.73 509.035 619.73C508.645 619.73 508.293 619.675 507.98 619.564C507.668 619.447 507.401 619.278 507.18 619.057C506.939 618.822 506.743 618.526 506.594 618.168C506.444 617.803 506.34 617.383 506.281 616.908L511.809 612.68C511.809 612.862 511.809 613.093 511.809 613.373C511.809 613.646 511.809 613.832 511.809 613.93V615.941ZM522.57 621V606.781H522.424L517.043 608.852V610.502L520.764 609.086V621H522.57Z" fill="white"/>
<path d="M594.422 632.561V629.23C594.422 628.326 594.318 627.525 594.109 626.828C593.901 626.125 593.602 625.533 593.211 625.051C592.814 624.569 592.329 624.204 591.756 623.957C591.189 623.703 590.542 623.576 589.812 623.576C589.09 623.576 588.442 623.703 587.869 623.957C587.303 624.204 586.824 624.569 586.434 625.051C586.036 625.533 585.734 626.125 585.525 626.828C585.317 627.525 585.213 628.326 585.213 629.23V632.561C585.213 633.465 585.317 634.27 585.525 634.973C585.734 635.669 586.036 636.255 586.434 636.73C586.831 637.219 587.316 637.587 587.889 637.834C588.462 638.075 589.109 638.195 589.832 638.195C590.561 638.195 591.209 638.072 591.775 637.824C592.342 637.577 592.82 637.212 593.211 636.73C593.602 636.255 593.901 635.669 594.109 634.973C594.318 634.27 594.422 633.465 594.422 632.561ZM587.029 632.199C587.029 632.03 587.029 631.864 587.029 631.701C587.029 631.538 587.029 631.376 587.029 631.213V628.83C587.029 628.166 587.094 627.583 587.225 627.082C587.361 626.574 587.566 626.161 587.84 625.842C588.068 625.588 588.344 625.396 588.67 625.266C589.002 625.129 589.383 625.061 589.812 625.061C590.236 625.061 590.607 625.122 590.926 625.246C591.251 625.37 591.525 625.555 591.746 625.803C591.974 626.044 592.153 626.346 592.283 626.711C592.42 627.069 592.514 627.482 592.566 627.951L587.029 632.199ZM592.605 632.941C592.605 633.638 592.534 634.243 592.391 634.758C592.254 635.272 592.036 635.689 591.736 636.008C591.515 636.242 591.245 636.421 590.926 636.545C590.607 636.669 590.242 636.73 589.832 636.73C589.441 636.73 589.09 636.675 588.777 636.564C588.465 636.447 588.198 636.278 587.977 636.057C587.736 635.822 587.54 635.526 587.391 635.168C587.241 634.803 587.137 634.383 587.078 633.908L592.605 629.68C592.605 629.862 592.605 630.093 592.605 630.373C592.605 630.646 592.605 630.832 592.605 630.93V632.941ZM603.367 638V623.781H603.221L597.84 625.852V627.502L601.561 626.086V638H603.367Z" fill="white"/>
<path d="M675.219 645.561V642.23C675.219 641.326 675.115 640.525 674.906 639.828C674.698 639.125 674.398 638.533 674.008 638.051C673.611 637.569 673.126 637.204 672.553 636.957C671.986 636.703 671.339 636.576 670.609 636.576C669.887 636.576 669.239 636.703 668.666 636.957C668.1 637.204 667.621 637.569 667.23 638.051C666.833 638.533 666.531 639.125 666.322 639.828C666.114 640.525 666.01 641.326 666.01 642.23V645.561C666.01 646.465 666.114 647.27 666.322 647.973C666.531 648.669 666.833 649.255 667.23 649.73C667.628 650.219 668.113 650.587 668.686 650.834C669.258 651.075 669.906 651.195 670.629 651.195C671.358 651.195 672.006 651.072 672.572 650.824C673.139 650.577 673.617 650.212 674.008 649.73C674.398 649.255 674.698 648.669 674.906 647.973C675.115 647.27 675.219 646.465 675.219 645.561ZM667.826 645.199C667.826 645.03 667.826 644.864 667.826 644.701C667.826 644.538 667.826 644.376 667.826 644.213V641.83C667.826 641.166 667.891 640.583 668.021 640.082C668.158 639.574 668.363 639.161 668.637 638.842C668.865 638.588 669.141 638.396 669.467 638.266C669.799 638.129 670.18 638.061 670.609 638.061C671.033 638.061 671.404 638.122 671.723 638.246C672.048 638.37 672.322 638.555 672.543 638.803C672.771 639.044 672.95 639.346 673.08 639.711C673.217 640.069 673.311 640.482 673.363 640.951L667.826 645.199ZM673.402 645.941C673.402 646.638 673.331 647.243 673.188 647.758C673.051 648.272 672.833 648.689 672.533 649.008C672.312 649.242 672.042 649.421 671.723 649.545C671.404 649.669 671.039 649.73 670.629 649.73C670.238 649.73 669.887 649.675 669.574 649.564C669.262 649.447 668.995 649.278 668.773 649.057C668.533 648.822 668.337 648.526 668.188 648.168C668.038 647.803 667.934 647.383 667.875 646.908L673.402 642.68C673.402 642.862 673.402 643.093 673.402 643.373C673.402 643.646 673.402 643.832 673.402 643.93V645.941ZM684.164 651V636.781H684.018L678.637 638.852V640.502L682.357 639.086V651H684.164Z" fill="white"/>
<path d="M652.133 602.561V599.23C652.133 598.326 652.029 597.525 651.82 596.828C651.612 596.125 651.312 595.533 650.922 595.051C650.525 594.569 650.04 594.204 649.467 593.957C648.9 593.703 648.253 593.576 647.523 593.576C646.801 593.576 646.153 593.703 645.58 593.957C645.014 594.204 644.535 594.569 644.145 595.051C643.747 595.533 643.445 596.125 643.236 596.828C643.028 597.525 642.924 598.326 642.924 599.23V602.561C642.924 603.465 643.028 604.27 643.236 604.973C643.445 605.669 643.747 606.255 644.145 606.73C644.542 607.219 645.027 607.587 645.6 607.834C646.173 608.075 646.82 608.195 647.543 608.195C648.272 608.195 648.92 608.072 649.486 607.824C650.053 607.577 650.531 607.212 650.922 606.73C651.312 606.255 651.612 605.669 651.82 604.973C652.029 604.27 652.133 603.465 652.133 602.561ZM644.74 602.199C644.74 602.03 644.74 601.864 644.74 601.701C644.74 601.538 644.74 601.376 644.74 601.213V598.83C644.74 598.166 644.805 597.583 644.936 597.082C645.072 596.574 645.277 596.161 645.551 595.842C645.779 595.588 646.055 595.396 646.381 595.266C646.713 595.129 647.094 595.061 647.523 595.061C647.947 595.061 648.318 595.122 648.637 595.246C648.962 595.37 649.236 595.555 649.457 595.803C649.685 596.044 649.864 596.346 649.994 596.711C650.131 597.069 650.225 597.482 650.277 597.951L644.74 602.199ZM650.316 602.941C650.316 603.638 650.245 604.243 650.102 604.758C649.965 605.272 649.747 605.689 649.447 606.008C649.226 606.242 648.956 606.421 648.637 606.545C648.318 606.669 647.953 606.73 647.543 606.73C647.152 606.73 646.801 606.675 646.488 606.564C646.176 606.447 645.909 606.278 645.688 606.057C645.447 605.822 645.251 605.526 645.102 605.168C644.952 604.803 644.848 604.383 644.789 603.908L650.316 599.68C650.316 599.862 650.316 600.093 650.316 600.373C650.316 600.646 650.316 600.832 650.316 600.93V602.941ZM661.078 608V593.781H660.932L655.551 595.852V597.502L659.271 596.086V608H661.078Z" fill="white"/>
<path d="M604.682 682.561V679.23C604.682 678.326 604.577 677.525 604.369 676.828C604.161 676.125 603.861 675.533 603.471 675.051C603.074 674.569 602.589 674.204 602.016 673.957C601.449 673.703 600.801 673.576 600.072 673.576C599.35 673.576 598.702 673.703 598.129 673.957C597.562 674.204 597.084 674.569 596.693 675.051C596.296 675.533 595.993 676.125 595.785 676.828C595.577 677.525 595.473 678.326 595.473 679.23V682.561C595.473 683.465 595.577 684.27 595.785 684.973C595.993 685.669 596.296 686.255 596.693 686.73C597.09 687.219 597.576 687.587 598.148 687.834C598.721 688.075 599.369 688.195 600.092 688.195C600.821 688.195 601.469 688.072 602.035 687.824C602.602 687.577 603.08 687.212 603.471 686.73C603.861 686.255 604.161 685.669 604.369 684.973C604.577 684.27 604.682 683.465 604.682 682.561ZM597.289 682.199C597.289 682.03 597.289 681.864 597.289 681.701C597.289 681.538 597.289 681.376 597.289 681.213V678.83C597.289 678.166 597.354 677.583 597.484 677.082C597.621 676.574 597.826 676.161 598.1 675.842C598.327 675.588 598.604 675.396 598.93 675.266C599.262 675.129 599.643 675.061 600.072 675.061C600.495 675.061 600.867 675.122 601.186 675.246C601.511 675.37 601.785 675.555 602.006 675.803C602.234 676.044 602.413 676.346 602.543 676.711C602.68 677.069 602.774 677.482 602.826 677.951L597.289 682.199ZM602.865 682.941C602.865 683.638 602.794 684.243 602.65 684.758C602.514 685.272 602.296 685.689 601.996 686.008C601.775 686.242 601.505 686.421 601.186 686.545C600.867 686.669 600.502 686.73 600.092 686.73C599.701 686.73 599.35 686.675 599.037 686.564C598.725 686.447 598.458 686.278 598.236 686.057C597.995 685.822 597.8 685.526 597.65 685.168C597.501 684.803 597.396 684.383 597.338 683.908L602.865 679.68C602.865 679.862 602.865 680.093 602.865 680.373C602.865 680.646 602.865 680.832 602.865 680.93V682.941ZM613.627 688V673.781H613.48L608.1 675.852V677.502L611.82 676.086V688H613.627Z" fill="white"/>
<path d="M557.23 691.561V688.23C557.23 687.326 557.126 686.525 556.918 685.828C556.71 685.125 556.41 684.533 556.02 684.051C555.622 683.569 555.137 683.204 554.564 682.957C553.998 682.703 553.35 682.576 552.621 682.576C551.898 682.576 551.251 682.703 550.678 682.957C550.111 683.204 549.633 683.569 549.242 684.051C548.845 684.533 548.542 685.125 548.334 685.828C548.126 686.525 548.021 687.326 548.021 688.23V691.561C548.021 692.465 548.126 693.27 548.334 693.973C548.542 694.669 548.845 695.255 549.242 695.73C549.639 696.219 550.124 696.587 550.697 696.834C551.27 697.075 551.918 697.195 552.641 697.195C553.37 697.195 554.018 697.072 554.584 696.824C555.15 696.577 555.629 696.212 556.02 695.73C556.41 695.255 556.71 694.669 556.918 693.973C557.126 693.27 557.23 692.465 557.23 691.561ZM549.838 691.199C549.838 691.03 549.838 690.864 549.838 690.701C549.838 690.538 549.838 690.376 549.838 690.213V687.83C549.838 687.166 549.903 686.583 550.033 686.082C550.17 685.574 550.375 685.161 550.648 684.842C550.876 684.588 551.153 684.396 551.479 684.266C551.811 684.129 552.191 684.061 552.621 684.061C553.044 684.061 553.415 684.122 553.734 684.246C554.06 684.37 554.333 684.555 554.555 684.803C554.783 685.044 554.962 685.346 555.092 685.711C555.229 686.069 555.323 686.482 555.375 686.951L549.838 691.199ZM555.414 691.941C555.414 692.638 555.342 693.243 555.199 693.758C555.062 694.272 554.844 694.689 554.545 695.008C554.324 695.242 554.053 695.421 553.734 695.545C553.415 695.669 553.051 695.73 552.641 695.73C552.25 695.73 551.898 695.675 551.586 695.564C551.273 695.447 551.007 695.278 550.785 695.057C550.544 694.822 550.349 694.526 550.199 694.168C550.049 693.803 549.945 693.383 549.887 692.908L555.414 688.68C555.414 688.862 555.414 689.093 555.414 689.373C555.414 689.646 555.414 689.832 555.414 689.93V691.941ZM566.176 697V682.781H566.029L560.648 684.852V686.502L564.369 685.086V697H566.176Z" fill="white"/>
<path d="M636.744 656.561V653.23C636.744 652.326 636.64 651.525 636.432 650.828C636.223 650.125 635.924 649.533 635.533 649.051C635.136 648.569 634.651 648.204 634.078 647.957C633.512 647.703 632.864 647.576 632.135 647.576C631.412 647.576 630.764 647.703 630.191 647.957C629.625 648.204 629.146 648.569 628.756 649.051C628.359 649.533 628.056 650.125 627.848 650.828C627.639 651.525 627.535 652.326 627.535 653.23V656.561C627.535 657.465 627.639 658.27 627.848 658.973C628.056 659.669 628.359 660.255 628.756 660.73C629.153 661.219 629.638 661.587 630.211 661.834C630.784 662.075 631.432 662.195 632.154 662.195C632.883 662.195 633.531 662.072 634.098 661.824C634.664 661.577 635.143 661.212 635.533 660.73C635.924 660.255 636.223 659.669 636.432 658.973C636.64 658.27 636.744 657.465 636.744 656.561ZM629.352 656.199C629.352 656.03 629.352 655.864 629.352 655.701C629.352 655.538 629.352 655.376 629.352 655.213V652.83C629.352 652.166 629.417 651.583 629.547 651.082C629.684 650.574 629.889 650.161 630.162 649.842C630.39 649.588 630.667 649.396 630.992 649.266C631.324 649.129 631.705 649.061 632.135 649.061C632.558 649.061 632.929 649.122 633.248 649.246C633.574 649.37 633.847 649.555 634.068 649.803C634.296 650.044 634.475 650.346 634.605 650.711C634.742 651.069 634.837 651.482 634.889 651.951L629.352 656.199ZM634.928 656.941C634.928 657.638 634.856 658.243 634.713 658.758C634.576 659.272 634.358 659.689 634.059 660.008C633.837 660.242 633.567 660.421 633.248 660.545C632.929 660.669 632.564 660.73 632.154 660.73C631.764 660.73 631.412 660.675 631.1 660.564C630.787 660.447 630.52 660.278 630.299 660.057C630.058 659.822 629.863 659.526 629.713 659.168C629.563 658.803 629.459 658.383 629.4 657.908L634.928 653.68C634.928 653.862 634.928 654.093 634.928 654.373C634.928 654.646 634.928 654.832 634.928 654.93V656.941ZM645.689 662V647.781H645.543L640.162 649.852V651.502L643.883 650.086V662H645.689Z" fill="white"/>
<path d="M572.619 655.561V652.23C572.619 651.326 572.515 650.525 572.307 649.828C572.098 649.125 571.799 648.533 571.408 648.051C571.011 647.569 570.526 647.204 569.953 646.957C569.387 646.703 568.739 646.576 568.01 646.576C567.287 646.576 566.639 646.703 566.066 646.957C565.5 647.204 565.021 647.569 564.631 648.051C564.234 648.533 563.931 649.125 563.723 649.828C563.514 650.525 563.41 651.326 563.41 652.23V655.561C563.41 656.465 563.514 657.27 563.723 657.973C563.931 658.669 564.234 659.255 564.631 659.73C565.028 660.219 565.513 660.587 566.086 660.834C566.659 661.075 567.307 661.195 568.029 661.195C568.758 661.195 569.406 661.072 569.973 660.824C570.539 660.577 571.018 660.212 571.408 659.73C571.799 659.255 572.098 658.669 572.307 657.973C572.515 657.27 572.619 656.465 572.619 655.561ZM565.227 655.199C565.227 655.03 565.227 654.864 565.227 654.701C565.227 654.538 565.227 654.376 565.227 654.213V651.83C565.227 651.166 565.292 650.583 565.422 650.082C565.559 649.574 565.764 649.161 566.037 648.842C566.265 648.588 566.542 648.396 566.867 648.266C567.199 648.129 567.58 648.061 568.01 648.061C568.433 648.061 568.804 648.122 569.123 648.246C569.449 648.37 569.722 648.555 569.943 648.803C570.171 649.044 570.35 649.346 570.48 649.711C570.617 650.069 570.712 650.482 570.764 650.951L565.227 655.199ZM570.803 655.941C570.803 656.638 570.731 657.243 570.588 657.758C570.451 658.272 570.233 658.689 569.934 659.008C569.712 659.242 569.442 659.421 569.123 659.545C568.804 659.669 568.439 659.73 568.029 659.73C567.639 659.73 567.287 659.675 566.975 659.564C566.662 659.447 566.395 659.278 566.174 659.057C565.933 658.822 565.738 658.526 565.588 658.168C565.438 657.803 565.334 657.383 565.275 656.908L570.803 652.68C570.803 652.862 570.803 653.093 570.803 653.373C570.803 653.646 570.803 653.832 570.803 653.93V655.941ZM581.564 661V646.781H581.418L576.037 648.852V650.502L579.758 649.086V661H581.564Z" fill="white"/>
<path d="M535.428 658.561V655.23C535.428 654.326 535.324 653.525 535.115 652.828C534.907 652.125 534.607 651.533 534.217 651.051C533.82 650.569 533.335 650.204 532.762 649.957C532.195 649.703 531.548 649.576 530.818 649.576C530.096 649.576 529.448 649.703 528.875 649.957C528.309 650.204 527.83 650.569 527.439 651.051C527.042 651.533 526.74 652.125 526.531 652.828C526.323 653.525 526.219 654.326 526.219 655.23V658.561C526.219 659.465 526.323 660.27 526.531 660.973C526.74 661.669 527.042 662.255 527.439 662.73C527.837 663.219 528.322 663.587 528.895 663.834C529.467 664.075 530.115 664.195 530.838 664.195C531.567 664.195 532.215 664.072 532.781 663.824C533.348 663.577 533.826 663.212 534.217 662.73C534.607 662.255 534.907 661.669 535.115 660.973C535.324 660.27 535.428 659.465 535.428 658.561ZM528.035 658.199C528.035 658.03 528.035 657.864 528.035 657.701C528.035 657.538 528.035 657.376 528.035 657.213V654.83C528.035 654.166 528.1 653.583 528.23 653.082C528.367 652.574 528.572 652.161 528.846 651.842C529.074 651.588 529.35 651.396 529.676 651.266C530.008 651.129 530.389 651.061 530.818 651.061C531.242 651.061 531.613 651.122 531.932 651.246C532.257 651.37 532.531 651.555 532.752 651.803C532.98 652.044 533.159 652.346 533.289 652.711C533.426 653.069 533.52 653.482 533.572 653.951L528.035 658.199ZM533.611 658.941C533.611 659.638 533.54 660.243 533.396 660.758C533.26 661.272 533.042 661.689 532.742 662.008C532.521 662.242 532.251 662.421 531.932 662.545C531.613 662.669 531.248 662.73 530.838 662.73C530.447 662.73 530.096 662.675 529.783 662.564C529.471 662.447 529.204 662.278 528.982 662.057C528.742 661.822 528.546 661.526 528.396 661.168C528.247 660.803 528.143 660.383 528.084 659.908L533.611 655.68C533.611 655.862 533.611 656.093 533.611 656.373C533.611 656.646 533.611 656.832 533.611 656.93V658.941ZM544.373 664V649.781H544.227L538.846 651.852V653.502L542.566 652.086V664H544.373Z" fill="white"/>
<path d="M595.703 575.561V572.23C595.703 571.326 595.599 570.525 595.391 569.828C595.182 569.125 594.883 568.533 594.492 568.051C594.095 567.569 593.61 567.204 593.037 566.957C592.471 566.703 591.823 566.576 591.094 566.576C590.371 566.576 589.723 566.703 589.15 566.957C588.584 567.204 588.105 567.569 587.715 568.051C587.318 568.533 587.015 569.125 586.807 569.828C586.598 570.525 586.494 571.326 586.494 572.23V575.561C586.494 576.465 586.598 577.27 586.807 577.973C587.015 578.669 587.318 579.255 587.715 579.73C588.112 580.219 588.597 580.587 589.17 580.834C589.743 581.075 590.391 581.195 591.113 581.195C591.842 581.195 592.49 581.072 593.057 580.824C593.623 580.577 594.102 580.212 594.492 579.73C594.883 579.255 595.182 578.669 595.391 577.973C595.599 577.27 595.703 576.465 595.703 575.561ZM588.311 575.199C588.311 575.03 588.311 574.864 588.311 574.701C588.311 574.538 588.311 574.376 588.311 574.213V571.83C588.311 571.166 588.376 570.583 588.506 570.082C588.643 569.574 588.848 569.161 589.121 568.842C589.349 568.588 589.626 568.396 589.951 568.266C590.283 568.129 590.664 568.061 591.094 568.061C591.517 568.061 591.888 568.122 592.207 568.246C592.533 568.37 592.806 568.555 593.027 568.803C593.255 569.044 593.434 569.346 593.564 569.711C593.701 570.069 593.796 570.482 593.848 570.951L588.311 575.199ZM593.887 575.941C593.887 576.638 593.815 577.243 593.672 577.758C593.535 578.272 593.317 578.689 593.018 579.008C592.796 579.242 592.526 579.421 592.207 579.545C591.888 579.669 591.523 579.73 591.113 579.73C590.723 579.73 590.371 579.675 590.059 579.564C589.746 579.447 589.479 579.278 589.258 579.057C589.017 578.822 588.822 578.526 588.672 578.168C588.522 577.803 588.418 577.383 588.359 576.908L593.887 572.68C593.887 572.862 593.887 573.093 593.887 573.373C593.887 573.646 593.887 573.832 593.887 573.93V575.941ZM604.648 581V566.781H604.502L599.121 568.852V570.502L602.842 569.086V581H604.648Z" fill="white"/>
<path d="M547.625 561.561V558.23C547.625 557.326 547.521 556.525 547.312 555.828C547.104 555.125 546.805 554.533 546.414 554.051C546.017 553.569 545.532 553.204 544.959 552.957C544.393 552.703 543.745 552.576 543.016 552.576C542.293 552.576 541.645 552.703 541.072 552.957C540.506 553.204 540.027 553.569 539.637 554.051C539.24 554.533 538.937 555.125 538.729 555.828C538.52 556.525 538.416 557.326 538.416 558.23V561.561C538.416 562.465 538.52 563.27 538.729 563.973C538.937 564.669 539.24 565.255 539.637 565.73C540.034 566.219 540.519 566.587 541.092 566.834C541.665 567.075 542.312 567.195 543.035 567.195C543.764 567.195 544.412 567.072 544.979 566.824C545.545 566.577 546.023 566.212 546.414 565.73C546.805 565.255 547.104 564.669 547.312 563.973C547.521 563.27 547.625 562.465 547.625 561.561ZM540.232 561.199C540.232 561.03 540.232 560.864 540.232 560.701C540.232 560.538 540.232 560.376 540.232 560.213V557.83C540.232 557.166 540.298 556.583 540.428 556.082C540.564 555.574 540.77 555.161 541.043 554.842C541.271 554.588 541.548 554.396 541.873 554.266C542.205 554.129 542.586 554.061 543.016 554.061C543.439 554.061 543.81 554.122 544.129 554.246C544.454 554.37 544.728 554.555 544.949 554.803C545.177 555.044 545.356 555.346 545.486 555.711C545.623 556.069 545.717 556.482 545.77 556.951L540.232 561.199ZM545.809 561.941C545.809 562.638 545.737 563.243 545.594 563.758C545.457 564.272 545.239 564.689 544.939 565.008C544.718 565.242 544.448 565.421 544.129 565.545C543.81 565.669 543.445 565.73 543.035 565.73C542.645 565.73 542.293 565.675 541.98 565.564C541.668 565.447 541.401 565.278 541.18 565.057C540.939 564.822 540.743 564.526 540.594 564.168C540.444 563.803 540.34 563.383 540.281 562.908L545.809 558.68C545.809 558.862 545.809 559.093 545.809 559.373C545.809 559.646 545.809 559.832 545.809 559.93V561.941ZM556.57 567V552.781H556.424L551.043 554.852V556.502L554.764 555.086V567H556.57Z" fill="white"/>
<path d="M668.625 550.561V547.23C668.625 546.326 668.521 545.525 668.312 544.828C668.104 544.125 667.805 543.533 667.414 543.051C667.017 542.569 666.532 542.204 665.959 541.957C665.393 541.703 664.745 541.576 664.016 541.576C663.293 541.576 662.645 541.703 662.072 541.957C661.506 542.204 661.027 542.569 660.637 543.051C660.24 543.533 659.937 544.125 659.729 544.828C659.52 545.525 659.416 546.326 659.416 547.23V550.561C659.416 551.465 659.52 552.27 659.729 552.973C659.937 553.669 660.24 554.255 660.637 554.73C661.034 555.219 661.519 555.587 662.092 555.834C662.665 556.075 663.312 556.195 664.035 556.195C664.764 556.195 665.412 556.072 665.979 555.824C666.545 555.577 667.023 555.212 667.414 554.73C667.805 554.255 668.104 553.669 668.312 552.973C668.521 552.27 668.625 551.465 668.625 550.561ZM661.232 550.199C661.232 550.03 661.232 549.864 661.232 549.701C661.232 549.538 661.232 549.376 661.232 549.213V546.83C661.232 546.166 661.298 545.583 661.428 545.082C661.564 544.574 661.77 544.161 662.043 543.842C662.271 543.588 662.548 543.396 662.873 543.266C663.205 543.129 663.586 543.061 664.016 543.061C664.439 543.061 664.81 543.122 665.129 543.246C665.454 543.37 665.728 543.555 665.949 543.803C666.177 544.044 666.356 544.346 666.486 544.711C666.623 545.069 666.717 545.482 666.77 545.951L661.232 550.199ZM666.809 550.941C666.809 551.638 666.737 552.243 666.594 552.758C666.457 553.272 666.239 553.689 665.939 554.008C665.718 554.242 665.448 554.421 665.129 554.545C664.81 554.669 664.445 554.73 664.035 554.73C663.645 554.73 663.293 554.675 662.98 554.564C662.668 554.447 662.401 554.278 662.18 554.057C661.939 553.822 661.743 553.526 661.594 553.168C661.444 552.803 661.34 552.383 661.281 551.908L666.809 547.68C666.809 547.862 666.809 548.093 666.809 548.373C666.809 548.646 666.809 548.832 666.809 548.93V550.941ZM677.57 556V541.781H677.424L672.043 543.852V545.502L675.764 544.086V556H677.57Z" fill="white"/>
<path d="M669.625 576.561V573.23C669.625 572.326 669.521 571.525 669.312 570.828C669.104 570.125 668.805 569.533 668.414 569.051C668.017 568.569 667.532 568.204 666.959 567.957C666.393 567.703 665.745 567.576 665.016 567.576C664.293 567.576 663.645 567.703 663.072 567.957C662.506 568.204 662.027 568.569 661.637 569.051C661.24 569.533 660.937 570.125 660.729 570.828C660.52 571.525 660.416 572.326 660.416 573.23V576.561C660.416 577.465 660.52 578.27 660.729 578.973C660.937 579.669 661.24 580.255 661.637 580.73C662.034 581.219 662.519 581.587 663.092 581.834C663.665 582.075 664.312 582.195 665.035 582.195C665.764 582.195 666.412 582.072 666.979 581.824C667.545 581.577 668.023 581.212 668.414 580.73C668.805 580.255 669.104 579.669 669.312 578.973C669.521 578.27 669.625 577.465 669.625 576.561ZM662.232 576.199C662.232 576.03 662.232 575.864 662.232 575.701C662.232 575.538 662.232 575.376 662.232 575.213V572.83C662.232 572.166 662.298 571.583 662.428 571.082C662.564 570.574 662.77 570.161 663.043 569.842C663.271 569.588 663.548 569.396 663.873 569.266C664.205 569.129 664.586 569.061 665.016 569.061C665.439 569.061 665.81 569.122 666.129 569.246C666.454 569.37 666.728 569.555 666.949 569.803C667.177 570.044 667.356 570.346 667.486 570.711C667.623 571.069 667.717 571.482 667.77 571.951L662.232 576.199ZM667.809 576.941C667.809 577.638 667.737 578.243 667.594 578.758C667.457 579.272 667.239 579.689 666.939 580.008C666.718 580.242 666.448 580.421 666.129 580.545C665.81 580.669 665.445 580.73 665.035 580.73C664.645 580.73 664.293 580.675 663.98 580.564C663.668 580.447 663.401 580.278 663.18 580.057C662.939 579.822 662.743 579.526 662.594 579.168C662.444 578.803 662.34 578.383 662.281 577.908L667.809 573.68C667.809 573.862 667.809 574.093 667.809 574.373C667.809 574.646 667.809 574.832 667.809 574.93V576.941ZM678.57 582V567.781H678.424L673.043 569.852V571.502L676.764 570.086V582H678.57Z" fill="white"/>
</g>
<defs>
<clipPath id="clip0">
<rect width="1233" height="1233" rx="616.5" fill="white"/>
</clipPath>
</defs>
</svg>
